<svg xmlns="http://www.w3.org/2000/svg" viewBox="0 0 660 210" width="660" height="210">
  <defs>
    <radialGradient id="dg" cx="55%" cy="30%" r="65%">
      <stop offset="0%"   stop-color="#FFD54F"/>
      <stop offset="100%" stop-color="#B8780A"/>
    </radialGradient>
    <filter id="ds" x="-25%" y="-25%" width="170%" height="170%">
      <feDropShadow dx="0" dy="4" stdDeviation="8"
                    flood-color="#9C7700" flood-opacity="0.22"/>
    </filter>
  </defs>

  <rect width="660" height="210" rx="18" fill="#FFFFFF"/>
  <rect width="660" height="210" rx="18" fill="none"
        stroke="#E2E8F0" stroke-width="1.5"/>

  <!-- Duck -->
  <g transform="translate(10,8)">
  <g filter="url(#ds)">
    <path d="M 34.8,118.0 C 22.2,101.8 16.8,78.4 29.4,67.6 C 42.0,64.0 49.2,78.4 45.6,98.2 C 42.0,110.8  36.6,116.2  34.8,118.0 Z" fill="url(#dg)" stroke="none"/>
    <ellipse cx="96.0" cy="118.0" rx="61.2" ry="41.4"
             transform="rotate(-4,96.0,118.0)"
             fill="url(#dg)" stroke="none"/>
    <circle  cx="142.8" cy="80.2" r="28.8"
             fill="url(#dg)" stroke="none"/>
    <path d="M 164.4,72.1 Q 199.5,72.1 195.0,81.1 Q 199.5,91.9 164.4,91.9 Q 159.0,80.2 164.4,72.1 Z" fill="#E06010" stroke="none"/>
    <circle  cx="147.3" cy="71.2" r="5.9" fill="#1A1A1A" stroke="none"/>
    <circle  cx="149.6" cy="68.7" r="2.2" fill="white" stroke="none"/>
    <path d="M 79.8,125.2 Q 112.2,106.3 141.0,125.2"
          fill="none" stroke="#C88E08" stroke-width="2.5"
          stroke-linecap="round" opacity="0.55"/>
  </g></g>

  <!-- Wordmark -->
  <text x="212" y="126"
        font-family="'Segoe UI','Helvetica Neue',Arial,sans-serif"
        font-size="80" font-weight="800" letter-spacing="-2">
    <tspan fill="#0D1117">quack</tspan><tspan fill="#CE422B">-rs</tspan>
  </text>

  <!-- Tagline -->
  <text x="214" y="158"
        font-family="'Segoe UI','Helvetica Neue',Arial,sans-serif"
        font-size="17" letter-spacing="0.5" fill="#6B7280">
    DuckDB extensions in Rust
  </text>
</svg>