<svg xmlns="http://www.w3.org/2000/svg" viewBox="0 0 660 210" width="660" height="210">
  <defs>
    <radialGradient id="dg" cx="62%" cy="24%" r="68%">
      <stop offset="0%"   stop-color="#FFF2A8"/>
      <stop offset="38%"  stop-color="#F5C420"/>
      <stop offset="100%" stop-color="#A87200"/>
    </radialGradient>
    <filter id="ds" x="-28%" y="-28%" width="180%" height="180%">
      <feDropShadow dx="0" dy="4" stdDeviation="9"
                    flood-color="#7A5500" flood-opacity="0.22"/>
    </filter>
  </defs>

  <!-- White card -->
  <rect width="660" height="210" rx="18" fill="#FFFFFF"/>
  <rect width="660" height="210" rx="18" fill="none"
        stroke="#DDE3EA" stroke-width="1.5"/>

  <g filter="url(#ds)">
    <!-- Shift duck slightly left to leave comfortable gap before wordmark at x=214 -->
    <g transform="translate(-10,2)">
      <path d="
        M 28,86
        C 32,78  40,72  56,70
        C 68,68  82,66  96,66
        C 110,66 120,68 126,72
        C 132,76 132,56 142,46
        C 150,38 160,34 170,38
        C 178,40 184,50 190,56
        C 200,60 212,68 218,74
        C 220,76 220,78 218,80
        C 214,82 200,84 186,84
        C 180,88 176,96 174,106
        C 174,118 182,138 166,148
        C 154,154 130,157 104,153
        C 78,149  56,140  42,125
        C 36,116  30,106  28,100
        C 28,96   28,92   28,86
        Z
      " fill="url(#dg)" stroke="none"/>

      <!-- Bill -->
      <path d="
        M 186,84
        C 184,76 186,66 188,57
        C 200,59 212,67 218,74
        C 220,76 220,78 218,80
        C 212,82 200,84 186,84
        Z
      " fill="#E06818" stroke="none"/>

      <!-- Wing fold crescent -->
      <path d="M 86,104 C 106,90 134,90 156,108 C 132,102 106,102 86,104 Z"
            fill="#A87200" opacity="0.24" stroke="none"/>

      <!-- Neck-body junction shadow -->
      <path d="M 104,99 Q 132,80 160,102 Q 132,95 104,99 Z"
            fill="#A87200" opacity="0.20" stroke="none"/>

      <!-- Wing-tip accent stroke -->
      <path d="M 90,107 C 112,95 136,95 158,110"
            fill="none" stroke="#8A6000" stroke-width="1.8"
            stroke-linecap="round" opacity="0.30"/>

      <!-- Eye (slightly warmer dark for light bg) -->
      <circle cx="164" cy="54" r="5.5" fill="#1A1A1A" stroke="none"/>
      <circle cx="166" cy="51" r="2.1" fill="white"   stroke="none"/>

      <!-- Brow highlight -->
      <ellipse cx="148" cy="52" rx="8" ry="5.2"
               transform="rotate(-30,148,52)"
               fill="white" opacity="0.18" stroke="none"/>

      <!-- Body specular -->
      <ellipse cx="115" cy="86" rx="14" ry="8"
               transform="rotate(-20,115,86)"
               fill="white" opacity="0.10" stroke="none"/>
    </g>
  </g>

  <!-- Wordmark -->
  <text x="214" y="122"
        font-family="'Liberation Sans', Arial, sans-serif" font-size="80" font-weight="700"
        letter-spacing="-2">
    <tspan fill="#0D1117">quack</tspan><tspan fill="#CE422B">-rs</tspan>
  </text>

  <!-- Tagline -->
  <text x="216" y="151"
        font-family="'Liberation Sans', Arial, sans-serif" font-size="16" font-weight="400"
        letter-spacing="0.4" fill="#6B7280">DuckDB extensions in Rust</text>
</svg>
